<svg width="32" height="32" viewBox="0 0 32 32" fill="none" xmlns="http://www.w3.org/2000/svg">
  <!-- Open book -->
  <path d="M6 9C6 9 8.5 7.5 12 7.5C15.5 7.5 18 9 18 9V23C18 23 15.5 21.5 12 21.5C8.5 21.5 6 23 6 23V9Z" fill="#2563eb"/>
  <path d="M18 9C18 9 20.5 7.5 24 7.5C27.5 7.5 30 9 30 9V23C30 23 27.5 21.5 24 21.5C20.5 21.5 18 23 18 23V9Z" fill="#1d4ed8"/>
  
  <!-- Graduation cap -->
  <path d="M16 4L6 8L16 12L26 8L16 4Z" fill="#f59e0b"/>
  <path d="M26 8V14L16 18L6 14V8" stroke="#f59e0b" stroke-width="1.5" fill="none"/>
  
  <!-- nt Text in cap -->
  <text x="16" y="8.5" font-family="'Brush Script MT', cursive, Georgia, serif" font-size="5.5" font-weight="bold" font-style="italic" fill="#1e40af" text-anchor="middle" dominant-baseline="middle" style="font-weight: 700; letter-spacing: 0.3px;">nt</text>
  
  <!-- Center line -->
  <line x1="16" y1="9" x2="16" y2="23" stroke="#1e40af" stroke-width="1.5" opacity="0.5"/>
</svg>
