<svg width="200" height="60" viewBox="0 0 200 60" fill="none" xmlns="http://www.w3.org/2000/svg">
  <!-- Book/Education symbol -->
  <g id="logo-icon">
    <!-- Open book -->
    <path d="M12 18C12 18 15 16 20 16C25 16 28 18 28 18V38C28 38 25 36 20 36C15 36 12 38 12 38V18Z" fill="#2563eb" opacity="0.9"/>
    <path d="M28 18C28 18 31 16 36 16C41 16 44 18 44 18V38C44 38 41 36 36 36C31 36 28 38 28 38V18Z" fill="#1d4ed8" opacity="0.9"/>
    
    <!-- Graduation cap on top -->
    <path d="M28 12L16 16L28 20L40 16L28 12Z" fill="#f59e0b"/>
    <path d="M40 16V22L28 26L16 22V16" stroke="#f59e0b" stroke-width="1.5" fill="none"/>
    
    <!-- Center line -->
    <line x1="28" y1="18" x2="28" y2="38" stroke="#1e40af" stroke-width="1.5" opacity="0.5"/>
  </g>
  
  <!-- Text: NEXA -->
  <g id="nexa-text" transform="translate(52, 18)">
    <text x="0" y="0" font-family="'Poppins', sans-serif" font-size="24" font-weight="700" fill="#1e40af">
      NEXA
    </text>
  </g>
  
  <!-- Text: TUTORS -->
  <g id="tutors-text" transform="translate(52, 42)">
    <text x="0" y="0" font-family="'Inter', sans-serif" font-size="16" font-weight="500" fill="#2563eb" letter-spacing="2">
      TUTORS
    </text>
  </g>
  
  <!-- Accent line under TUTORS -->
  <line x1="52" y1="44" x2="135" y2="44" stroke="#f59e0b" stroke-width="2"/>
</svg>
